<?xml version="1.0" encoding="utf-8"?>
<!-- Svg Vector Icons : http://www.onlinewebfonts.com/icon -->
<!DOCTYPE svg PUBLIC "-//W3C//DTD SVG 1.1//EN" "http://www.w3.org/Graphics/SVG/1.1/DTD/svg11.dtd">
<svg version="1.1" xmlns="http://www.w3.org/2000/svg" xmlns:xlink="http://www.w3.org/1999/xlink" x="0px" y="0px" viewBox="0 0 1000 1000" enable-background="new 0 0 1000 1000" xml:space="preserve">
<metadata> Svg Vector Icons : http://www.onlinewebfonts.com/icon </metadata>
<g><g transform="translate(0.000000,511.000000) scale(0.100000,-0.100000)">
  <path fill="#605E5E" d="M2906.7,4983.4c-440.1-98-790.8-457.5-869.3-891.1c-17.4-89.3-24-1329-24-3986.9c0-3268,6.5-3880.1,32.7-4006.5c87.1-418.3,437.9-766.9,858.4-856.2c211.3-43.6,3976-43.6,4187.3,0c424.8,91.5,769.1,435.7,860.6,860.6c45.7,217.9,45.7,7808.2-2.2,8026.1c-78.4,374.7-337.7,668.8-725.5,819.2l-146,56.6l-2015.2,4.4C3388.2,5011.7,3024.4,5007.3,2906.7,4983.4z M7046.2,4360.3c111.1-50.1,213.5-143.8,268-246.2c43.6-82.8,47.9-126.4,54.5-540.3l8.7-453.1H5000.4H2623.5v398.7c0,435.7,19.6,551.2,117.6,679.7c71.9,93.7,183,161.2,300.7,183c52.3,8.7,956.4,15.3,2010.9,15.3C6745.5,4395.1,6978.6,4390.8,7046.2,4360.3z M7368.6,207.8l-6.5-2610H4998.2H2634.4l-6.5,2610l-4.4,2607.8h2374.7h2374.7L7368.6,207.8z M7368.6-3256.2c-6.5-505.4-8.7-546.8-54.5-627.4c-54.5-102.4-139.4-185.2-246.2-241.8c-71.9-39.2-165.6-41.4-2069.7-41.4H3004.8l-87.1,47.9c-102.4,54.5-185.2,139.4-241.8,246.2c-37,67.5-41.4,139.4-47.9,616.6l-8.7,538.1h2379.1h2379.1L7368.6-3256.2z"/>
  <path fill="#605E5E" d="M4370.8,3870.1c-63.2-43.6-65.4-165.6-4.4-226.6c41.4-41.4,71.9-43.6,631.8-43.6c559.9,0,590.4,2.2,631.8,43.6c61,61,58.8,183-4.4,226.6c-41.4,30.5-139.4,34.9-627.4,34.9C4510.2,3904.9,4412.2,3900.6,4370.8,3870.1z"/>
  <path fill="#605E5E" d="M4292.4,2162c-174.3-54.5-276.7-268-211.3-442.3c17.4-45.8,10.9-63.2-34.9-104.6c-87.1-80.6-220-296.3-259.3-422.7l-37-115.5l-117.7-8.7c-139.4-13.1-268-91.5-366-233.1l-65.4-93.7l-6.5-568.6c-6.5-607.8,2.2-675.4,106.7-808.3c63.2-80.6,220-167.8,335.5-183c98-15.3,102.4-17.5,139.4-130.7c45.8-135.1,106.7-204.8,228.7-261.4l89.3-43.6l2.2-150.3c8.7-451,453.1-692.8,823.5-448.8c67.5,43.6,93.7,50.1,119.8,30.5c170-119.8,318.1-152.5,483.7-102.4c237.5,67.5,361.7,237.5,383.4,522.9l13.1,161.2l87.1,39.2c104.6,47.9,207,180.8,224.4,296.3c13.1,78.4,19.6,82.8,93.7,82.8c172.1,0,379.1,148.1,453.2,320.3c43.6,108.9,41.4,1154.7-6.5,1265.8c-71.9,174.3-261.4,307.2-435.7,309.4c-89.3,0-91.5,0-128.6,115.5c-47.9,148.2-115.5,265.8-226.6,383.4c-69.7,76.3-82.8,102.4-67.5,135.1c65.4,119.8,0,318.1-135.1,420.5c-128.5,93.7-379.1,32.7-466.2-113.3l-32.7-58.8h-281.1h-281l-32.7,58.8C4614.8,2129.3,4425.3,2203.4,4292.4,2162z M4508,1726.3c45.8-65.4,85-122,85-124.2c2.2-2.2,56.7,10.9,122,28.3c185.2,47.9,457.5,39.2,644.9-21.8c39.2-10.9,61,8.7,139.4,128.5c65.4,100.2,100.2,137.2,115.5,122c17.4-17.4-2.2-63.2-65.4-152.5l-87.1-128.5l135.1-87.1c196.1-130.7,324.6-318.1,342.1-505.4l6.5-76.3l-956.4-6.5l-956.4-4.4l15.2,91.5c32.7,207,207,440.1,403,538.1l89.3,47.9l-89.3,126.4c-52.3,74.1-82.8,139.4-74.1,154.7C4394.7,1887.5,4396.9,1885.3,4508,1726.3z M3850.1,711c76.3-76.3,85-156.9,76.3-671l-6.5-431.4l-71.9-63.2c-95.9-87.1-202.6-87.1-289.8,0l-63.2,63.2V125v516.3l63.2,63.2C3645.3,789.5,3769.5,793.8,3850.1,711z M5952.5-51.5l-6.5-819.2l-52.3-41.4c-34.8-28.3-85-41.4-167.7-41.4h-117.7v-254.9c0-217.9-6.5-268-43.6-329c-80.6-132.9-235.3-143.8-337.7-21.8c-52.3,61-54.5,76.3-54.5,335.5v270.2h-174.3h-174.3v-281c0-265.8-2.2-281-52.3-335.5c-67.5-71.9-148.2-93.7-230.9-58.8c-108.9,45.8-119.8,74.1-130.7,379.1l-10.9,285.4L4264-953.4c-226.6,17.4-213.5-39.2-220,904.1l-6.5,817h960.8H5959L5952.5-51.5z M6434,711l67.5-56.7V131.5v-522.9l-63.2-63.2c-89.3-87.1-198.2-87.1-287.6,0l-63.2,63.2V125v516.3l63.2,63.2C6235.7,787.3,6340.3,789.5,6434,711z"/>
  <path fill="#605E5E"
    d="M4536.4,1353.7c-54.5-30.5-52.3-141.6,4.4-172.1c95.9-50.1,191.7,74.1,117.6,154.7C4617,1382.1,4590.8,1386.4,4536.4,1353.7z"/>
  <path fill="#605E5E" d="M5340.3,1338.5c-52.3-56.6-45.8-106.8,15.3-146c74.1-50.1,143.8-10.9,143.8,76.3C5499.3,1366.8,5403.4,1408.2,5340.3,1338.5z"/>
  <path fill="#605E5E" d="M4843.5-3119c-82.8-56.6-150.3-187.4-150.3-287.6c0-235.3,261.4-396.5,483.7-296.3c244,106.8,261.4,453.2,34.9,592.6C5107.2-3047.1,4943.8-3051.4,4843.5-3119z"/>
</g></g>
</svg>
