<?xml version="1.0" encoding="utf-8"?>
<!-- Generator: Adobe Illustrator 19.0.0, SVG Export Plug-In . SVG Version: 6.00 Build 0)  -->
<!DOCTYPE svg PUBLIC "-//W3C//DTD SVG 1.1//EN" "http://www.w3.org/Graphics/SVG/1.1/DTD/svg11.dtd">
<svg version="1.1" id="Layer_1" xmlns="http://www.w3.org/2000/svg" xmlns:xlink="http://www.w3.org/1999/xlink" x="0px" y="0px"
	 viewBox="0 0 350 200" style="enable-background:new 0 0 350 200;" xml:space="preserve">
<style type="text/css">
	.st0{fill:#605E5E;/*transform:rotate(90deg);*/}
</style>
<path transform='rotate(60 300 47), scale(1.5)' class="st0" d="M318.4,71.2c-1.9-6.6-6.3-12.1-12.3-15.4c-6-3.3-13-4.1-19.6-2.2c-6.6,1.9-12.1,6.3-15.4,12.3
	c-1.5,2.8-2.5,5.7-2.9,8.6l-52,14.9c-4-7-9.9-12.8-17.1-16.8c-7.4-4.1-15.6-6-23.9-5.5l-5.9-20.3c2.5-2,4.6-4.5,6.3-7.5
	c3.3-6,4.1-13,2.2-19.6c-1.9-6.6-6.3-12.1-12.3-15.4c-12.5-6.9-28.2-2.3-35.1,10.1c-3.3,6-4.1,13-2.2,19.6
	c1.9,6.6,6.3,12.1,12.3,15.4c3.3,1.8,6.7,2.8,10.2,3.1l5.7,19.8c-7.6,4-13.8,10.1-18.1,17.8c-4.1,7.3-5.9,15.5-5.5,23.7
	c-0.2,0-0.4,0.1-0.6,0.1l-46.6,13.6c-2.5-3.3-5.8-6.2-9.6-8.2c-7.1-4-15.4-4.9-23.3-2.6c-7.8,2.3-14.3,7.4-18.3,14.6
	c-8.2,14.8-2.8,33.4,12,41.5c4.6,2.5,9.6,3.8,14.7,3.8c2.8,0,5.7-0.4,8.5-1.2c7.8-2.3,14.3-7.4,18.3-14.6c2.1-3.8,3.4-8,3.7-12.3
	l46.6-13.6c0.3-0.1,0.5-0.2,0.7-0.3c4,6.7,9.7,12.3,16.7,16.2c6.7,3.7,14.1,5.6,21.6,5.6c1.4,0,2.8-0.1,4.2-0.2l1.6,5.9
	c-2.3,1.7-4.2,3.9-5.6,6.4c-2.7,4.8-3.3,10.3-1.8,15.6c2.6,9,10.8,14.9,19.7,14.9c1.9,0,3.8-0.3,5.7-0.8c5.3-1.5,9.6-5,12.3-9.8
	c2.7-4.8,3.3-10.4,1.8-15.6c-1.5-5.3-5-9.6-9.8-12.3c-2.4-1.3-4.9-2.1-7.5-2.4l-1.6-5.9c6.9-3.2,12.9-8.1,17.3-14.4l35.5,16.2
	c0,3.1,0.5,6.2,1.6,9.3c3.9,10.6,14,17.2,24.7,17.2c3,0,6-0.5,9-1.6c13.6-5,20.6-20.1,15.6-33.7c-2.4-6.6-7.3-11.8-13.6-14.8
	c-6.4-3-13.5-3.2-20.1-0.8c-3.1,1.1-5.9,2.8-8.3,5l-36.4-16.6c0.4-2.6,0.5-5.2,0.4-7.8l52-14.9c1.9,2.3,4.3,4.2,7.1,5.8
	c3.9,2.2,8.2,3.2,12.4,3.2c9.1,0,17.9-4.8,22.6-13.3C319.5,84.8,320.3,77.8,318.4,71.2z M188.6,117.9c-3.4,6.2-11.3,8.5-17.4,5
	c-6.2-3.4-8.5-11.3-5-17.5c2.3-4.2,6.7-6.6,11.3-6.6c2.1,0,4.2,0.5,6.2,1.6c3,1.7,5.2,4.4,6.1,7.7
	C190.6,111.5,190.2,114.9,188.6,117.9z"/>
</svg>
